<svg height='100px' width='100px'  fill="#004d40" xmlns="http://www.w3.org/2000/svg" xmlns:xlink="http://www.w3.org/1999/xlink" version="1.1" x="0px" y="0px" viewBox="0 0 100 100" enable-background="new 0 0 100 100" xml:space="preserve"><g><path d="M50,64.80566c8.16406,0,14.80566-6.6416,14.80566-14.80566S58.16406,35.19385,50,35.19385S35.19434,41.83594,35.19434,50   S41.83594,64.80566,50,64.80566z M50,43.19385c3.75293,0,6.80566,3.05322,6.80566,6.80615   c0,3.75244-3.05273,6.80566-6.80566,6.80566S43.19434,53.75244,43.19434,50C43.19434,46.24707,46.24707,43.19385,50,43.19385z"></path><path d="M12.01074,54h9.22247C23.00781,66.82202,33.17798,76.99219,46,78.76678v9.22247c0,2.20898,1.79102,4,4,4s4-1.79102,4-4   v-9.22247C66.82202,76.99219,76.99219,66.82202,78.76678,54h9.22247c2.20898,0,4-1.79102,4-4s-1.79102-4-4-4h-9.22247   C76.99219,33.17798,66.82202,23.00781,54,21.23322v-9.22247c0-2.20898-1.79102-4-4-4s-4,1.79102-4,4v9.22247   C33.17798,23.00781,23.00781,33.17798,21.23322,46h-9.22247c-2.20898,0-4,1.79102-4,4S9.80176,54,12.01074,54z M50,28.95117   c11.60645,0,21.04883,9.44238,21.04883,21.04883S61.60645,71.04883,50,71.04883S28.95117,61.60645,28.95117,50   S38.39355,28.95117,50,28.95117z"></path></g></svg>